<svg xmlns="http://www.w3.org/2000/svg" viewBox="0 0 361.38 138.96"><defs><style>.cls-1,.cls-2{fill:#fff;}.cls-2{fill-rule:evenodd;}</style></defs><g id="Calque_2" data-name="Calque 2"><g id="Layer_1" data-name="Layer 1"><path class="cls-1" d="M33.58,72.19l-5.36,9.25c21.42,13.87,34.44,33.48,38.28,41.1h1.59A127,127,0,0,0,33.58,72.19Z"/><path class="cls-1" d="M38.56,63.58c23,20.75,30.54,49.45,31.91,59H72c-.87-12.66-6.31-48.41-27.33-69.42L38.56,63.58Z"/><path class="cls-1" d="M124.37,89.75l0-.06A121.68,121.68,0,0,0,81,122.54h1.51c1.17-1,4.24-3.27,5.93-4.63a127.53,127.53,0,0,1,39.81-18.59l15.11,26.29-60.83,0v-3.1H64.43v3.06H5.94L31.08,83.18l-2.86-1.74L0,129H64.43v-3.07H82.55V129l66.77,0s-17.78-30.41-17.49-30.47c18.22-4.1,31.13-2.32,32.54-2.11l7.27-15.6a105.38,105.38,0,0,0-47.27,9Z"/><path class="cls-1" d="M115.4,70.08,75.05,0,50.83,42.39C57.08,49,74,71.33,74.34,122.54h1.83C77.42,69.94,66,44.75,59.25,34.63L75.07,6.74l37.71,65.49a123.9,123.9,0,0,0-35,50.31h1.64c3.12-5.88,12.34-18.62,24.11-29.7C133.27,65.05,168,64.6,178.87,65.24l8.27-17.76c-31.66-1-55,9.28-71.74,22.6Z"/><path class="cls-1" d="M212.78,106.93a10.3,10.3,0,0,0-6.35-2c-5.1,0-10.24,3.26-12.09,7.62-2.81,6.61,6.25,7.09,4.48,11.26a5.08,5.08,0,0,1-4.79,2.77,9.1,9.1,0,0,1-6-2.58l-2.68,4.39c1.63,1.48,3.89,2.4,7.55,2.4a12.94,12.94,0,0,0,11.8-7.72c3-7-6.07-7.53-4.53-11.15a5.2,5.2,0,0,1,4.72-2.77,8.12,8.12,0,0,1,5.3,2.21l2.62-4.43Z"/><path class="cls-2" d="M229.48,114a23,23,0,0,0-5.41-.56c-9,0-14.41,5.32-16.47,10.2-1.79,4.21-.59,7.2,2.81,7.2a10.92,10.92,0,0,0,5.63-1.88l-.88,1.55h5L229.48,114Zm-11.54,11.63a8.58,8.58,0,0,1-4.21,1.48c-1.52,0-1.94-1.18-1.08-3.21s3.84-6.87,9.78-6.24l-4.49,8Z"/><path class="cls-2" d="M239.15,113.69h-5l-9.49,16.77h5l9.48-16.77Zm1.15-7.24a4.37,4.37,0,0,0-3.68,2.59c-.61,1.44,0,2.58,1.49,2.58a4.38,4.38,0,0,0,3.68-2.58c.61-1.45,0-2.59-1.49-2.59Z"/><path class="cls-2" d="M248.78,113.69h-5l-9.49,16.77h5l6.09-10.79c2.47-1.81,4.16-2.58,5.31-2.58,1.33,0,1,1.73.05,3.36l-5.65,10h5l5.85-10.38c1.93-3.43,2.28-6.69-1.6-6.69-2,0-4,.63-6.65,2.18l1.1-1.88Z"/><path class="cls-1" d="M272.43,110.14h-5.06l-2.09,3.55h-3.4l-2.19,3.69h3.39l-3.89,6.4c-2.12,3.5-2,7,2.11,7a12,12,0,0,0,4.74-1.07l1.87-4.39a9.54,9.54,0,0,1-3.31,1c-1.4,0-1-1.62.13-3.51l3.26-5.43h3.7l2.23-3.69h-3.69l2.2-3.55Z"/><path class="cls-2" d="M287.6,122.78c3.45-5.36,2.32-9.39-2.93-9.39-5.05,0-10.82,4.11-13,9.24-2.1,5-.21,8.16,4.88,8.16a21.88,21.88,0,0,0,6.35-1.21l2.66-4.18c-3.2,1.11-5.37,1.7-6.92,1.7-2.4,0-3.43-1.59-2-4.32Zm-9.27-2.88c1.64-2.11,3.15-3.07,4.78-3.07s2.16,1.26,1.09,3.07Z"/><polygon class="cls-1" points="302.97 119.6 291.41 119.6 288.55 124.7 300.07 124.7 302.97 119.6 302.97 119.6"/><polygon class="cls-1" points="328.88 105.27 314.37 105.27 300.13 130.46 305.49 130.46 311.61 119.67 319.48 119.67 321.86 115.46 313.99 115.46 317.35 109.48 326.46 109.48 328.88 105.27 328.88 105.27"/><path class="cls-2" d="M339.28,121.3c2-4.8-.15-7.91-4.95-7.91-5.32,0-11.46,4.22-13.63,9.31-1.93,4.55.26,8.09,5,8.09,5.39,0,11.29-4.13,13.56-9.49Zm-5.11-.15c-1,2.33-3.8,5.58-6.68,5.58-1.48,0-2.83-1.18-1.74-3.73.72-1.7,3.38-5.54,6.63-5.54,2,0,2.73,1.48,1.79,3.69Z"/><polygon class="cls-2" points="361.38 113.69 356.17 113.69 347.59 123.48 348.46 113.69 343.47 113.69 342.37 128.91 333.23 138.96 338.47 138.96 361.38 113.69 361.38 113.69"/><path class="cls-2" d="M228.65,72.94h-5L219,81.25a22.31,22.31,0,0,0-2.36-.18,16.05,16.05,0,0,0-14.38,9.35c-2.1,5,.35,8,6.29,8a37,37,0,0,0,6-.56l14.11-25Zm-17,21.28a7.08,7.08,0,0,1-1.44.18c-2.77,0-3.83-1.51-2.79-4a8.73,8.73,0,0,1,9.15-5l-4.92,8.72Z"/><path class="cls-2" d="M238.27,90.45c3.46-5.35,2.33-9.38-2.92-9.38-5,0-10.82,4.1-13,9.23-2.1,5-.22,8.17,4.88,8.17a22.06,22.06,0,0,0,6.35-1.22l2.66-4.17c-3.2,1.1-5.37,1.69-6.93,1.69-2.4,0-3.42-1.58-2-4.32ZM229,87.57c1.63-2.11,3.15-3.07,4.77-3.07s2.17,1.26,1.1,3.07Z"/><path class="cls-1" d="M247.29,41.21a23,23,0,0,0-6.44-.93c-9.71,0-18.93,5.88-22.52,14.34-2.91,6.87.06,11.52,7.37,11.52a27.52,27.52,0,0,0,9.71-2l3.16-5.62c-4.5,2.07-7.54,3-10.42,3-4.43,0-6.08-2.62-4.33-6.76a16.61,16.61,0,0,1,20.6-8.87l2.87-4.65Z"/><path class="cls-2" d="M252.32,47.19H255l9.24-6.35H258.3l-6,6.35Zm5.07,10.94c3.45-5.36,2.32-9.39-2.93-9.39-5.05,0-10.82,4.1-13,9.24-2.1,5-.21,8.16,4.88,8.16a21.61,21.61,0,0,0,6.35-1.22l2.66-4.17c-3.2,1.11-5.37,1.7-6.92,1.7-2.4,0-3.43-1.59-2-4.32Zm-9.27-2.88c1.64-2.11,3.15-3.07,4.78-3.07s2.16,1.25,1.09,3.07Z"/><path class="cls-2" d="M281.47,49h-9.38A11.43,11.43,0,0,0,262,55.36c-.89,2.1-.63,3.65.86,4.83a9.24,9.24,0,0,0-2.5.86,4.94,4.94,0,0,0-2.21,2.25,2.37,2.37,0,0,0,1,3.1c-3.18.89-5,2.14-5.74,3.77-.78,1.85-.2,4.14,6.22,4.14,6.83,0,9.79-2.7,11-5.47,2.72-6.39-8.2-4.51-7.39-6.43.3-.7,1-.89,3.41-.89a10.56,10.56,0,0,0,9.62-6.13,5.54,5.54,0,0,0,.5-2.66h2.69L281.47,49Zm-9.61,5.76c-.73,1.74-2.09,3.62-4.27,3.62-1.44,0-2-.85-1.33-2.33,1-2.4,2.52-3.69,4.3-3.69,1.44,0,1.93.92,1.3,2.4ZM262,67.4c2.71.66,4.18.85,3.65,2.1s-1.78,1.59-4.59,1.59c-2.58,0-3.46-.55-2.95-1.73.39-.93,1.48-1.67,3.89-2Z"/><path class="cls-2" d="M294.3,58.13c3.46-5.36,2.32-9.39-2.92-9.39-5.06,0-10.82,4.1-13,9.24-2.1,5-.22,8.16,4.88,8.16a21.72,21.72,0,0,0,6.35-1.22l2.66-4.17c-3.21,1.11-5.38,1.7-6.93,1.7-2.4,0-3.42-1.59-2-4.32ZM285,55.25c1.63-2.11,3.15-3.07,4.77-3.07s2.16,1.25,1.1,3.07Z"/><path class="cls-2" d="M311.31,45.79h-5l-3.46,6.13c-4.6,2.77-7.09,6-7.34,6.61-.08.19,0,.34.15.34.89,0,1.64-1.52,5.29-3.59l-10.74,19h5l4.79-8.5a6.75,6.75,0,0,0,2.11.33c5.87,0,12.42-4.47,14.8-10.08,1.87-4.4.15-7.32-4.24-7.32-.41,0-.94,0-1.47.08a14,14,0,0,0-1.72.22l1.82-3.25Zm-3.87,6.87c4.07-.81,5.5.59,4.27,3.51-1,2.4-3.81,5.91-8,5.91a2.38,2.38,0,0,1-1.38-.33l5.12-9.09Z"/></g></g></svg>